# xmcd
#
# Track frame offsets:
#	150
#	12030
#	23495
#	33623
#	42774
#	54730
#	65129
#	75408
#	87092
#	98591
#	108988
#	119494
#	131208
#	140238
#	149595
#	160486
#	170725
#	181013
#	194367
#	203337
#
# Disc length: 2840 seconds
#
# Revision: 0
# Processed by: cddbd v1.5.2PL0 Copyright (c) Steve Scherf et al.
# Submitted via: dBpowerAMP V4.0
#
DISCID=160b1614
DTITLE=AL CAIOLA - LOS MEJORES INSTRUMENTALES DE AL CAIOLA
DYEAR=1900
DGENRE=Instrumental
TTITLE0=01_GUNS OF NAVARONE
TTITLE1=02_MOON RIVER
TTITLE2=03_GUITAR BOOGIE
TTITLE3=04_MAGNIFICENT SEVEN
TTITLE4=05_I'LL  WALK THE LINE
TTITLE5=06_ THE WORD IS WAITING FOR SUNRISE
TTITLE6=07_JEZEBEL
TTITLE7=08_MEXICO
TTITLE8=09_HIGH GUITAR
TTITLE9=10_TWO GUITARS
TTITLE10=11_FOOT STOPIN
TTITLE11=12_VAYA CON DIOS
TTITLE12=13_NAPOLEON SOLO
TTITLE13=14_EL FUGITIVO
TTITLE14=15_AGENTE SECRETO
TTITLE15=16_CASA SUBMARINA
TTITLE16=17_EL TERCER HOMBRE
TTITLE17=18_,MASACRE EN LA DECIMA AVENIDA
TTITLE18=19_GOLLFINGER
TTITLE19=20_DETECTIVE PRIVADO
EXTD=CAIOLA AL
EXTT0=
EXTT1=
EXTT2=
EXTT3=
EXTT4=
EXTT5=
EXTT6=
EXTT7=
EXTT8=
EXTT9=
EXTT10=
EXTT11=
EXTT12=
EXTT13=
EXTT14=
EXTT15=
EXTT16=
EXTT17=
EXTT18=
EXTT19=
PLAYORDER=
